<svg viewBox="0 0 502 222" fill="none" xmlns="http://www.w3.org/2000/svg">
<path d="M105.488 51.8825H158.879L134.93 86.2025H105.488V51.8825Z" />
<path d="M62.5348 0H60.0908L60.0791 2.44563L59.3751 149.074L59.3513 154.021L63.3053 151.051L104.038 120.447L105.019 119.71V118.482V76.3805V61.5949V46.8091V35.0259H170.588H175.003L172.674 31.2726L153.997 1.16144L153.277 0H151.911H62.5348Z" />
<path d="M35.6188 62.2225C49.5048 53.4225 59.1284 51.8825 59.1284 51.8825V89.7225C53.2753 94.0587 50.0008 97.5421 44.1877 107.763C44.1877 107.763 32.7625 129.763 41.3314 154.623C45.8428 167.711 53.3425 174.643 57.5904 177.283C64.7677 182.343 83.8243 190.219 102.632 181.243C121.44 172.267 124.677 160.856 123.944 155.723H61.7649L105.928 122.723H165.47C165.617 126.903 166.129 146.043 165.47 151.543C162.939 172.663 155.206 181.125 152.947 184.323C140.203 202.363 118.818 214.61 107.685 217.983C98.091 220.696 72.1994 225.346 49.2412 213.803C39.354 209.818 28.4859 202.336 21.2773 194.183C9.41268 180.763 8.37418 175.303 4.4193 164.743C-1.4724 149.011 -0.121479 130.936 0.903851 122.723C3.01436 105.928 6.98268 96.6892 8.37418 94.1225C11.6699 87.1558 21.7329 71.0225 35.6188 62.2225Z" />
<path d="M215.923 181.957V121.752H236.504V201H217.168L215.923 181.957ZM218.267 165.624L223.979 165.478C223.979 170.8 223.467 175.731 222.441 180.272C221.416 184.765 219.878 188.671 217.827 191.991C215.825 195.312 213.262 197.899 210.137 199.755C207.061 201.562 203.423 202.465 199.224 202.465C196.001 202.465 193.022 201.928 190.288 200.854C187.603 199.73 185.283 197.997 183.33 195.653C181.377 193.261 179.839 190.209 178.716 186.498C177.642 182.738 177.104 178.246 177.104 173.021V121.752H197.686V173.168C197.686 175.316 197.856 177.172 198.198 178.734C198.589 180.248 199.126 181.493 199.81 182.47C200.542 183.446 201.372 184.154 202.3 184.594C203.228 184.984 204.277 185.18 205.449 185.18C208.672 185.18 211.211 184.35 213.066 182.689C214.971 180.98 216.313 178.661 217.095 175.731C217.876 172.753 218.267 169.384 218.267 165.624Z" />
<path d="M272.979 121.752V201H252.397V121.752H272.979ZM251.445 101.171C251.445 97.9971 252.446 95.3848 254.448 93.334C256.499 91.2832 259.258 90.2578 262.725 90.2578C266.143 90.2578 268.853 91.2832 270.854 93.334C272.856 95.3848 273.857 97.9971 273.857 101.171C273.857 104.345 272.856 106.981 270.854 109.081C268.853 111.132 266.143 112.157 262.725 112.157C259.258 112.157 256.499 111.132 254.448 109.081C252.446 106.981 251.445 104.345 251.445 101.171Z" />
<path d="M310.771 88.5V201H290.19V122.454L310.771 88.5Z" />
<path d="M351.564 122.851V201H330.983V88.5L351.564 122.851Z" />
<path d="M365.48 164.086V158.739C365.48 152.538 366.213 147.045 367.678 142.26C369.191 137.475 371.34 133.471 374.123 130.248C376.906 126.977 380.251 124.511 384.157 122.851C388.112 121.142 392.531 120.287 397.414 120.287C402.346 120.287 407.5 124 408.5 126.5C416 126 421 125.5 425.5 125.5C426.5 130.5 426.669 131.554 428 137.353C429.203 142.593 429.567 152.538 429.567 158.739V164.086C429.567 170.238 428.811 175.707 427.297 180.492C425.783 185.277 423.61 189.306 420.778 192.577C417.995 195.849 414.65 198.314 410.744 199.975C406.838 201.635 402.443 202.465 397.561 202.465C392.678 202.465 388.259 201.635 384.304 199.975C380.397 198.314 377.028 195.849 374.196 192.577C371.364 189.306 369.191 185.277 367.678 180.492C366.213 175.707 365.48 170.238 365.48 164.086ZM385.988 158.739V164.086C385.988 167.748 386.232 170.922 386.721 173.607C387.258 176.293 388.015 178.515 388.991 180.272C390.017 182.03 391.237 183.324 392.653 184.154C394.069 184.984 395.705 185.399 397.561 185.399C399.416 185.399 401.076 184.984 402.541 184.154C404.006 183.324 405.202 182.03 406.13 180.272C407.106 178.515 407.814 176.293 408.254 173.607C408.742 170.922 408.986 167.748 408.986 164.086V158.739C408.986 155.175 408.718 152.05 408.181 149.364C407.644 146.63 406.887 144.408 405.91 142.699C404.934 140.941 403.713 139.623 402.248 138.744C400.832 137.816 399.221 137.353 397.414 137.353C395.607 137.353 393.996 137.816 392.58 138.744C391.213 139.623 390.017 140.941 388.991 142.699C388.015 144.408 387.258 146.63 386.721 149.364C386.232 152.05 385.988 155.175 385.988 158.739Z" />
<path d="M480.837 181.957V121.752H501.418V201H482.082L480.837 181.957ZM483.181 165.624L488.894 165.478C488.894 170.8 488.381 175.731 487.355 180.272C486.33 184.765 484.792 188.671 482.741 191.991C480.739 195.312 478.176 197.899 475.051 199.755C471.975 201.562 468.337 202.465 464.138 202.465C460.915 202.465 457.937 201.928 455.202 200.854C452.517 199.73 450.197 197.997 448.244 195.653C446.291 193.261 444.753 190.209 443.63 186.498C442.556 182.738 442.019 178.246 442.019 173.021V121.752H462.6V173.168C462.6 175.316 462.771 177.172 463.112 178.734C463.503 180.248 464.04 181.493 464.724 182.47C465.456 183.446 466.286 184.154 467.214 184.594C468.142 184.984 469.191 185.18 470.363 185.18C473.586 185.18 476.125 184.35 477.98 182.689C479.885 180.98 481.228 178.661 482.009 175.731C482.79 172.753 483.181 169.384 483.181 165.624Z" />
<path d="M197.65 7.5V120H177.069V7.5H197.65Z" />
<path d="M211.413 84.0859V78.7393C211.413 72.5381 212.146 67.0449 213.61 62.2598C215.124 57.4746 217.272 53.4707 220.056 50.248C222.839 46.9766 226.184 44.5107 230.09 42.8506C234.045 41.1416 238.464 40.2871 243.347 40.2871C248.278 40.2871 252.697 41.1416 256.604 42.8506C260.559 44.5107 263.928 46.9766 266.711 50.248C269.543 53.4707 270.986 57.7148 272.5 62.5C273.271 64.2402 273 72.2988 273 78.5V82.5C273 93.5 273 94 273 94C272 91 263 86 256.5 90C253 92 250 96.5 250 100.272C250.041 107.696 256.039 112.905 260.5 113.5C268 114.5 273 109 273 107C273 105 273 120 273 120C273 120 235 120.5 230 119C226.094 117.34 222.961 115.849 220.129 112.577C217.297 109.306 215.124 105.277 213.61 100.492C212.146 95.707 211.413 90.2383 211.413 84.0859ZM231.921 78.7393V84.0859C231.921 87.748 232.165 90.9219 232.653 93.6074C233.19 96.293 233.947 98.5146 234.924 100.272C235.949 102.03 237.17 103.324 238.586 104.154C240.002 104.984 241.638 105.399 243.493 105.399C245.349 105.399 247.5 102.5 247.5 101C247.5 101 247.5 98 249 94.5C251 90.5 252.907 90.2318 254.5 87.5C254.919 86.7815 254.919 84.0859 254.919 84.0859V78.7393C254.919 75.1748 254.65 72.0498 254.113 69.3643C253.576 66.6299 252.819 64.4082 251.843 62.6992C250.866 60.9414 249.646 59.623 248.181 58.7441C246.765 57.8164 245.153 57.3525 243.347 57.3525C241.54 57.3525 239.929 57.8164 238.513 58.7441C237.146 59.623 235.949 60.9414 234.924 62.6992C233.947 64.4082 233.19 66.6299 232.653 69.3643C232.165 72.0498 231.921 75.1748 231.921 78.7393Z" />
<path d="M310.823 58.4033V86L290.2 120V40.752H310.77L310.823 58.4033ZM329.5 40.166L329.207 60.6006C328.279 60.4053 327.156 60.2588 325.838 60.1611C324.568 60.0635 323.445 60.0146 322.469 60.0146C320.174 60.0146 318.221 60.3809 316.609 61.1133C314.998 61.7969 313.655 62.8467 312.581 64.2627C311.556 65.6299 310.774 67.3389 310.237 69.3896C309.7 71.4404 309.383 73.7598 309.285 76.3477L305.403 74.8828C305.403 69.707 305.794 64.9707 306.575 60.6738C307.405 56.3281 308.626 52.5684 310.237 49.3945C311.849 46.1719 313.777 43.6816 316.023 41.9238C318.318 40.166 320.906 39.2871 323.787 39.2871C324.764 39.2871 325.789 39.3848 326.863 39.5801C327.986 39.7266 328.865 39.9219 329.5 40.166Z" />
<path d="M351.56 40.17V120L331 86V40.17H351.56ZM329.863 20.1709C329.863 16.9971 330.864 14.3848 332.866 12.334C334.917 10.2832 337.676 9.25781 341.143 9.25781C344.561 9.25781 347.271 10.2832 349.272 12.334C351.274 14.3848 352.275 16.9971 352.275 20.1709C352.275 23.3447 351.274 25.9814 349.272 28.0811C347.271 30.1318 344.561 31.1572 341.143 31.1572C337.676 31.1572 334.917 30.1318 332.866 28.0811C330.864 25.9814 329.863 23.3447 329.863 20.1709Z" />
<path d="M403.062 100.298V63.6768C403.062 61.2842 402.77 59.3799 402.184 57.9639C401.646 56.5479 400.816 55.5225 399.693 54.8877C398.619 54.2041 397.301 53.8623 395.738 53.8623C393.98 53.8623 392.516 54.2285 391.344 54.9609C390.172 55.6934 389.293 56.7432 388.707 58.1104C388.17 59.4775 387.901 61.1133 387.901 63.0176H367.32C367.32 59.5996 367.979 56.377 369.298 53.3496C370.616 50.2734 372.545 47.5879 375.084 45.293C377.672 42.9492 380.748 41.1182 384.312 39.7998C387.877 38.4814 391.881 37.8223 396.324 37.8223C401.598 37.8223 406.285 38.7256 410.387 40.5322C414.488 42.29 417.735 45.0977 420.128 48.9551C422.521 52.8125 423.717 57.8174 423.717 63.9697V99.2725C423.717 103.716 423.937 107.329 424.376 110.112C424.864 112.896 424.517 119.998 425.444 122V123.245L408.5 124C407.572 121.803 404.21 113.604 403.722 110.332C403.282 107.012 403.062 103.667 403.062 100.298ZM405.553 70.1221L405.626 82.4268H398.082C396.129 82.4268 394.42 82.7441 392.955 83.3789C391.539 84.0137 390.343 84.917 389.366 86.0889C388.39 87.2119 387.657 88.5303 387.169 90.0439C386.729 91.5576 386.51 93.1689 386.51 94.8779C386.51 96.7822 386.778 98.3936 387.315 99.7119C387.853 101.03 388.658 102.031 389.732 102.715C390.807 103.398 392.076 103.74 393.541 103.74C395.787 103.74 397.74 103.276 399.4 102.349C401.061 101.421 402.281 100.298 403.062 98.9795C403.893 97.6611 404.161 96.4404 403.868 95.3174L408.556 103.301C407.97 105.107 407.164 106.987 406.139 108.94C405.162 110.894 403.917 112.7 402.403 114.36C400.89 116.021 399.01 117.388 396.764 118.462C394.566 119.487 391.954 120 388.927 120C384.679 120 380.797 119.023 377.281 117.07C373.766 115.117 370.982 112.383 368.932 108.867C366.93 105.352 365.929 101.177 365.929 96.3428C365.929 92.3389 366.563 88.7256 367.833 85.5029C369.151 82.2314 371.104 79.4727 373.692 77.2266C376.28 74.9316 379.552 73.1738 383.507 71.9531C387.462 70.7324 392.101 70.1221 397.423 70.1221H405.553Z" />
<path d="M462.581 57.6709V120H442V40.752H461.189L462.581 57.6709ZM459.505 77.666L454.012 77.8125C453.914 71.8555 454.476 66.5088 455.696 61.7725C456.966 57.0361 458.748 53.0078 461.043 49.6875C463.387 46.3184 466.17 43.7549 469.393 41.9971C472.615 40.1904 476.253 39.2871 480.306 39.2871C483.382 39.2871 486.189 39.8242 488.729 40.8984C491.316 41.9727 493.538 43.6816 495.394 46.0254C497.249 48.3691 498.689 51.4697 499.715 55.3271C500.74 59.1846 501.253 63.9453 501.253 69.6094V120H480.672V69.4629C480.672 66.0449 480.33 63.4082 479.646 61.5527C478.963 59.6484 477.938 58.3301 476.57 57.5977C475.252 56.8164 473.543 56.4258 471.443 56.4258C469.49 56.4258 467.757 56.9629 466.243 58.0371C464.729 59.1113 463.46 60.625 462.435 62.5781C461.458 64.4824 460.701 66.7285 460.164 69.3164C459.676 71.9043 459.456 74.6875 459.505 77.666Z" />
</svg>
