<svg width="136" height="87" viewBox="0 0 136 87" fill="none" xmlns="http://www.w3.org/2000/svg">
<path d="M109.089 55.7765C112.063 59.8065 113.835 63.2781 113.835 64.5163C113.835 67.126 111.711 69.2624 109.089 69.2624C106.467 69.2624 104.343 67.1382 104.343 64.5163C104.343 63.2781 106.115 59.8065 109.089 55.7765ZM109.089 49.0154L107.802 50.5812C106.515 52.135 100.131 60.1221 100.131 64.5284C100.131 69.4688 104.148 73.4866 109.089 73.4866C114.029 73.4866 118.047 69.4688 118.047 64.5284C118.047 60.1221 111.662 52.1471 110.376 50.5812L109.089 49.0154Z" fill="#2061AC"/>
<path d="M45.0097 30.0914C44.6577 26.984 42.0236 24.5563 38.819 24.5563C38.6612 24.5563 38.5034 24.5684 38.3335 24.5805L42.8976 20.3442C42.8976 20.3442 42.9583 20.2592 42.9825 20.2228H41.004L35.3231 25.4909C35.2382 25.5638 35.1896 25.6609 35.1532 25.7458C33.5995 26.8747 32.5798 28.7076 32.5798 30.7833C32.5798 34.2185 35.3717 37.0104 38.8069 37.0104C41.3317 37.0104 43.5166 35.4931 44.4877 33.3203L53.1425 20.3806C53.1425 20.3806 53.191 20.2714 53.2153 20.2107H51.6009L44.9975 30.0793L45.0097 30.0914ZM43.2981 32.6526V32.6769C43.2981 32.6769 43.2739 32.7133 43.2617 32.7376C42.5091 34.4492 40.8098 35.6509 38.819 35.6509C36.1486 35.6509 33.9636 33.4781 33.9636 30.7955C33.9636 28.1128 36.1364 25.94 38.819 25.94C41.5016 25.94 43.6744 28.1128 43.6744 30.7955C43.6744 31.4509 43.5409 32.0821 43.2981 32.6648V32.6526Z" fill="#2061AC"/>
<path d="M95.8458 20.2713L100.568 24.5805C100.398 24.5683 100.216 24.5562 100.034 24.5562C96.829 24.5562 94.195 26.9839 93.8429 30.0914L87.2396 20.2227H85.5887C85.5887 20.2227 85.5887 20.247 85.6009 20.2592L94.3406 33.3202C95.3117 35.493 97.4966 37.0103 100.021 37.0103C103.457 37.0103 106.249 34.2185 106.249 30.7833C106.249 28.9868 105.484 27.3723 104.258 26.2313C104.221 26.1221 104.173 26.025 104.076 25.94L97.8122 20.2227H95.7851C95.7851 20.2227 95.8094 20.2592 95.8215 20.2713H95.8458ZM104.889 30.7833C104.889 33.4537 102.716 35.6387 100.034 35.6387C98.0429 35.6387 96.3435 34.437 95.5909 32.7254C95.5909 32.7011 95.5909 32.689 95.5666 32.6647V32.6405C95.3117 32.0699 95.1782 31.4387 95.1782 30.7711C95.1782 28.1007 97.351 25.9157 100.034 25.9157C102.716 25.9157 104.889 28.0885 104.889 30.7711V30.7833Z" fill="#2061AC"/>
<path d="M75.2953 29.351C73.7658 27.7851 71.6416 26.814 69.2988 26.814C66.9561 26.814 64.8683 27.7608 63.3388 29.3024L65.0989 20.2107H63.6908L61.2389 32.8226C61.0204 33.5752 60.8868 34.3763 60.8868 35.2017C60.8868 39.8265 64.6498 43.5895 69.2746 43.5895C73.8993 43.5895 77.6623 39.8265 77.6623 35.2017C77.6623 34.8376 77.638 34.4856 77.5894 34.1457C77.5894 34.1093 77.5894 34.085 77.5894 34.0486L77.5166 33.6723C77.5045 33.5873 77.4802 33.5023 77.4681 33.4174L74.8947 20.2228H73.4866L75.271 29.351H75.2953ZM76.1814 33.9151C76.2542 34.3399 76.3028 34.7648 76.3028 35.2017C76.3028 39.0739 73.1589 42.2178 69.2867 42.2178C65.4145 42.2178 62.2706 39.0739 62.2706 35.2017C62.2706 34.7526 62.3192 34.3156 62.392 33.9029C62.4284 33.8422 62.4527 33.7694 62.4648 33.6966L62.5741 33.1139C63.4602 30.2614 66.1307 28.1857 69.2746 28.1857C72.6248 28.1857 75.4409 30.5527 76.1207 33.7087L76.1571 33.9151H76.1814Z" fill="#2061AC"/>
<path d="M122.903 16.1564C122.903 16.1564 122.878 16.12 122.866 16.0957C122.866 16.0957 122.854 16.0835 122.842 16.0714C122.793 16.0107 122.733 15.9379 122.66 15.9015L84.1565 0.0364156C84.1565 0.0364156 84.0351 0 83.9622 0H54.6356C54.5749 0 54.502 0.0121385 54.4414 0.0364156L15.9501 15.9136C15.8044 15.9743 15.7195 16.1078 15.683 16.2535C15.6345 16.3506 15.5859 16.4598 15.5859 16.5812V19.543C15.5859 19.9193 15.8894 20.2349 16.2778 20.2349H122.356C122.733 20.2349 123.048 19.9315 123.048 19.543V16.5812C123.048 16.4234 122.988 16.2778 122.89 16.1685L122.903 16.1564ZM68.2793 0.473402H69.9058L70.0029 1.06819H68.2186L68.2914 0.473402H68.2793ZM68.0851 2.03927H70.1486L70.3914 3.56873H67.8908L68.0851 2.03927ZM67.7209 4.81899H70.5856L70.9133 6.89468H67.466L67.733 4.81899H67.7209ZM67.2596 8.43627H71.144L71.5567 11.0582H66.9198L67.2596 8.43627ZM71.848 12.8911L72.3214 15.8893H66.3128L66.7013 12.8911H71.8601H71.848ZM121.677 18.839H16.9697V17.261H121.677V18.839Z" fill="black"/>
<path d="M19.9314 84.3263L21.0603 85.9408H20.6962L19.5794 84.3385H18.2321V85.9408H17.9286V81.7166H19.6887C20.5505 81.7166 21.1817 82.2628 21.1817 83.0275C21.1817 83.7194 20.6598 84.2292 19.9314 84.3263ZM18.2442 84.0471H19.6401C20.3684 84.0471 20.8783 83.6466 20.8783 83.0397C20.8783 82.4327 20.3684 82.0322 19.6401 82.0322H18.2442V84.0593V84.0471Z" fill="black"/>
<path d="M23.3424 83.8287C23.3424 82.6391 24.3256 81.6437 25.5031 81.6437C26.6805 81.6437 27.6637 82.6391 27.6637 83.8287C27.6637 85.0182 26.6805 86.0136 25.5031 86.0136C24.3256 86.0136 23.3424 85.0182 23.3424 83.8287ZM27.3481 83.8287C27.3481 82.809 26.4984 81.9472 25.5031 81.9472C24.5077 81.9472 23.6459 82.809 23.6459 83.8287C23.6459 84.8483 24.4956 85.7223 25.5031 85.7223C26.5106 85.7223 27.3481 84.8604 27.3481 83.8287Z" fill="black"/>
<path d="M33.0653 84.909H30.6012L30.1399 85.9529H29.8L31.6572 81.7287H31.9971L33.8543 85.9529H33.5144L33.0532 84.909H33.0653ZM32.9318 84.6176L31.8272 82.105L30.7226 84.6176H32.9318Z" fill="black"/>
<path d="M36.2578 81.7287H37.6902C38.9768 81.7287 39.8994 82.6027 39.8994 83.8408C39.8994 85.0789 38.989 85.9529 37.6902 85.9529H36.2578V81.7287ZM37.6902 85.6494C38.8069 85.6494 39.5838 84.8968 39.5838 83.8286C39.5838 82.7605 38.8069 82.02 37.6902 82.02H36.5613V85.6494H37.6902Z" fill="black"/>
<path d="M48.7847 84.909H46.3206L45.8593 85.9529H45.5194L47.3766 81.7287H47.7165L49.5737 85.9529H49.2338L48.7725 84.909H48.7847ZM48.6512 84.6176L47.5465 82.105L46.4419 84.6176H48.6512Z" fill="black"/>
<path d="M51.9772 81.7287H52.2806L55.0725 85.4552V81.7287H55.376V85.9529H55.0725L52.2806 82.2264V85.9529H51.9772V81.7287Z" fill="black"/>
<path d="M58.1556 81.7287H59.588C60.8747 81.7287 61.7972 82.6027 61.7972 83.8408C61.7972 85.0789 60.8868 85.9529 59.588 85.9529H58.1556V81.7287ZM59.588 85.6494C60.7047 85.6494 61.4816 84.8968 61.4816 83.8286C61.4816 82.7605 60.7047 82.02 59.588 82.02H58.4591V85.6494H59.588Z" fill="black"/>
<path d="M67.7086 81.7287H69.4687C70.3305 81.7287 70.9617 82.2749 70.9617 83.0396C70.9617 83.8044 70.3305 84.3506 69.4687 84.3506H68.0242V85.9529H67.7208V81.7287H67.7086ZM69.3959 84.0471C70.1242 84.0471 70.634 83.6466 70.634 83.0396C70.634 82.4327 70.1242 82.0321 69.3959 82.0321H68.0121V84.0593H69.3959V84.0471Z" fill="black"/>
<path d="M73.2681 81.7287H73.5715V85.9529H73.2681V81.7287Z" fill="black"/>
<path d="M76.1692 81.7287H77.9293C78.7911 81.7287 79.4223 82.2749 79.4223 83.0396C79.4223 83.8044 78.7911 84.3506 77.9293 84.3506H76.4848V85.9529H76.1813V81.7287H76.1692ZM77.8564 84.0471C78.5848 84.0471 79.0946 83.6466 79.0946 83.0396C79.0946 82.4327 78.5848 82.0321 77.8564 82.0321H76.4727V84.0593H77.8564V84.0471Z" fill="black"/>
<path d="M82.0321 82.02V83.6466H84.3748V83.9379H82.0321V85.6373H84.5812V85.9408H81.7286V81.7166H84.5812V82.02H82.0321Z" fill="black"/>
<path d="M94.2071 81.7287L92.3499 85.9529H92.01L90.1528 81.7287H90.4927L92.1921 85.5645L93.8794 81.7287H94.2192H94.2071Z" fill="black"/>
<path d="M96.5134 81.7287H96.8169V85.9529H96.5134V81.7287Z" fill="black"/>
<path d="M99.2081 85.346L99.4023 85.1032C99.7786 85.4795 100.301 85.7223 100.883 85.7223C101.563 85.7223 102.012 85.3581 102.012 84.8726C102.012 84.387 101.636 84.1564 100.786 83.9622C99.8393 83.7437 99.4023 83.4645 99.4023 82.8576C99.4023 82.1657 99.9728 81.6559 100.774 81.6559C101.332 81.6559 101.842 81.8865 102.231 82.2628L102.049 82.5056C101.684 82.1657 101.235 81.9593 100.75 81.9593C100.143 81.9593 99.7058 82.3356 99.7058 82.8454C99.7058 83.2581 100.082 83.4766 100.932 83.683C101.854 83.9015 102.316 84.2171 102.316 84.8604C102.316 85.5038 101.757 86.0379 100.871 86.0379C100.228 86.0379 99.633 85.7951 99.2081 85.3702V85.346Z" fill="black"/>
<path d="M104.755 81.7287H105.059V85.9529H104.755V81.7287Z" fill="black"/>
<path d="M107.487 83.8287C107.487 82.6391 108.482 81.6437 109.647 81.6437C110.813 81.6437 111.808 82.6391 111.808 83.8287C111.808 85.0182 110.825 86.0136 109.647 86.0136C108.47 86.0136 107.487 85.0182 107.487 83.8287ZM111.504 83.8287C111.504 82.809 110.655 81.9472 109.659 81.9472C108.664 81.9472 107.802 82.809 107.802 83.8287C107.802 84.8483 108.652 85.7223 109.659 85.7223C110.667 85.7223 111.504 84.8604 111.504 83.8287Z" fill="black"/>
<path d="M114.333 81.7287H114.636L117.428 85.4552V81.7287H117.732V85.9529H117.428L114.636 82.2264V85.9529H114.333V81.7287Z" fill="black"/>
<path d="M10.1721 72.8069L6.29989 67.3081H3.61728V72.8069H0V55.8858H7.61085C11.2767 55.8858 13.9957 58.2528 13.9957 61.603C13.9957 64.1157 12.4663 66.0821 10.1478 66.8954L14.3113 72.8069H10.1721ZM3.61728 63.9822H7.21028C9.00678 63.9822 10.2449 63.0475 10.2449 61.5909C10.2449 60.1343 9.00678 59.1996 7.21028 59.1996H3.61728V63.9822Z" fill="black"/>
<path d="M28.6955 64.6984V72.8069H25.2239V65.4631C25.2239 63.8851 24.2407 62.8048 22.8083 62.8048C21.3032 62.8048 20.15 63.8851 20.15 65.2689L20.1257 65.196V72.8069H16.5327V60.0736H20.1257V61.6759C20.8904 60.5227 22.3228 59.7823 23.9736 59.7823C26.7291 59.7823 28.7077 61.8215 28.7077 64.7105L28.6955 64.6984Z" fill="black"/>
<path d="M31.8271 55.8858H39.438C43.1038 55.8858 45.8229 58.2528 45.8229 61.603C45.8229 64.9533 43.116 67.3203 39.438 67.3203H35.4444V72.819H31.8271V55.8979V55.8858ZM39.0374 63.9822C40.8339 63.9822 42.0721 63.0475 42.0721 61.5909C42.0721 60.1343 40.8339 59.1996 39.0374 59.1996H35.4444V63.9822H39.0374Z" fill="black"/>
<path d="M69.6387 55.8858L62.1735 72.8069H60.8139L53.3488 55.8858H54.7083L61.5058 71.2774L68.2791 55.8858H69.6387Z" fill="black"/>
<path d="M73.1346 55.8858H74.3606V72.8069H73.1346V55.8858Z" fill="black"/>
<path d="M78.2085 70.3913L78.9732 69.4324C80.4784 70.9376 82.5905 71.8965 84.9332 71.8965C87.6644 71.8965 89.4366 70.4156 89.4366 68.4734C89.4366 66.5313 87.9315 65.6209 84.5084 64.8076C80.709 63.9458 78.9611 62.7926 78.9611 60.4013C78.9611 57.6216 81.2553 55.5702 84.4598 55.5702C86.6812 55.5702 88.7205 56.4806 90.3227 57.9858L89.5823 58.9447C88.1257 57.5609 86.3049 56.7476 84.387 56.7476C81.9472 56.7476 80.1992 58.2771 80.1992 60.2921C80.1992 61.9672 81.7287 62.829 85.1275 63.6423C88.8418 64.5284 90.6748 65.7908 90.6748 68.3763C90.6748 70.9618 88.4291 73.0861 84.8847 73.0861C82.2992 73.0861 79.9322 72.1029 78.2085 70.4035V70.3913Z" fill="black"/>
<path d="M94.7047 55.8858H95.9307V72.8069H94.7047V55.8858Z" fill="black"/>
<path d="M122.356 55.8372H123.594L134.774 70.7919V55.8372H136V72.7583H134.774L123.594 57.8036V72.7583H122.356V55.8372Z" fill="black"/>
</svg>
