<svg width="185" height="231" viewBox="0 0 185 231" fill="none" xmlns="http://www.w3.org/2000/svg" class="logo">
    <path d="M110.077 54.34H163.468L139.519 88.66H110.077V54.34Z" fill="white" stroke="white" />
    <path
        d="M67.1239 2.45746H64.6799L64.6682 4.90309L63.9642 151.531L63.9404 156.478L67.8944 153.508L108.627 122.904L109.608 122.167V120.939V78.838V64.0524V49.2666V37.4834H175.177H179.592L177.263 33.7301L158.586 3.6189L157.866 2.45746H156.5H67.1239Z"
        fill="white" stroke="white" />
    <path
        d="M40.2078 64.68C54.0938 55.88 63.7174 54.34 63.7174 54.34V92.18C57.8643 96.5162 54.5898 99.9996 48.7767 110.22C48.7767 110.22 37.3515 132.22 45.9204 157.08C50.4318 170.168 57.9315 177.1 62.1794 179.74C69.3567 184.8 88.4133 192.676 107.221 183.7C126.029 174.724 129.266 163.313 128.533 158.18H66.3539L110.517 125.18H170.059C170.206 129.36 170.718 148.5 170.059 154C167.528 175.12 159.795 183.582 157.536 186.78C144.792 204.82 123.407 217.067 112.274 220.44C102.68 223.153 76.7884 227.803 53.8302 216.26C43.943 212.275 33.0749 204.793 25.8663 196.64C14.0017 183.22 12.9632 177.76 9.00832 167.2C3.11662 151.468 4.46754 133.393 5.49287 125.18C7.60338 108.385 11.5717 99.1467 12.9632 96.58C16.2589 89.6133 26.3219 73.48 40.2078 64.68Z"
        fill="white" stroke="white" />
</svg>