<svg width="427" height="376" viewBox="0 0 427 376" fill="none" xmlns="http://www.w3.org/2000/svg" class="orca">
    <path
        d="M20.6395 176.921C13.1395 174.921 -0.527219 163.421 1.13955 158.421C8.33955 136.821 45.1395 106.088 62.6395 93.4214C69.8395 88.6214 91.9729 78.7548 102.14 74.4214C118.64 65.9214 138.64 65.4214 164.64 61.4214C185.44 58.2214 220.306 58.4214 235.14 58.9214C247.64 34.9214 263.14 21.9215 278.64 7.92145C291.04 -3.27855 305.14 1.58812 310.64 5.42145C295.473 21.4215 271.84 58.4214 298.64 78.4214C325.44 98.4214 345.473 128.755 352.14 141.421C370.94 157.021 383.973 214.921 388.14 241.921L389.14 286.921C399.64 289.421 414.64 336.421 414.64 336.421C414.64 336.421 430.662 364.376 425.14 375.421C424.64 376.421 394.64 347.921 394.64 347.921C394.64 347.921 378.14 331.421 377.14 328.921L368.64 339.421C363.14 347.421 345.14 330.921 344.64 328.921C341.896 317.946 360.64 292.421 364.64 285.421C367.84 279.821 347.64 259.755 337.14 250.421C338.14 244.421 303.14 222.921 291.14 211.921C281.54 203.121 251.473 199.255 237.64 198.421C228.64 195.421 225.14 197.421 219.64 198.421C214.14 199.421 224.64 203.921 228.64 208.921C232.64 213.921 229.64 222.421 228.64 232.421C227.64 242.421 213.64 236.421 211.64 237.421C203.568 241.457 184.64 228.921 184.64 228.921C184.64 228.921 162.14 209.421 161.64 208.921C161.14 208.421 142.64 190.421 136.64 190.421C120.64 192.421 28.1395 178.921 20.6395 176.921Z"
        fill="#00001F" stroke="white" />
    <path
        d="M134.14 110.921C109.74 110.521 100.973 126.755 99.6395 134.921C102.806 136.921 122.64 139.921 122.64 139.921L161.64 119.921C161.64 119.921 164.869 117.187 164.64 114.921C164.447 113.021 163.684 111.575 161.772 110.959C161.923 111.119 156.737 111.292 134.14 110.921Z"
        fill="white" stroke="white" />
    <path
        d="M269.64 84.9215C263.64 73.7215 272.806 75.9215 278.14 78.4215C280.306 79.4215 286.74 81.7215 295.14 82.9215C303.54 84.1215 317.64 99.7548 323.64 107.421C323.64 107.421 317.473 106.588 316.64 108.421C316.24 120.421 311.806 122.088 309.64 121.421C309.14 125.921 277.14 98.9215 269.64 84.9215Z"
        fill="white" stroke="white" />
    <path
        d="M17.6396 163.921C18.8396 161.521 9.80625 161.255 5.13958 161.421C3.13958 161.421 4.30625 163.088 5.13958 163.921C13.9396 169.521 26.4729 172.921 31.6396 173.921C79.2396 182.721 118.473 186.255 132.14 186.921C139.64 187.421 155.14 170.921 160.64 164.421C165.04 159.221 137.14 152.921 122.64 150.421H103.14C104.64 152.421 16.1396 166.921 17.6396 163.921Z"
        fill="white" stroke="white" />
    <path
        d="M321.14 225.921C310.74 215.121 287.473 205.088 277.14 201.421C275.14 200.755 272.64 199.221 278.64 198.421C284.64 197.621 288.806 196.755 290.14 196.421C303.34 191.621 310.306 184.755 312.14 181.921C325.34 176.721 331.64 179.088 333.14 180.921C353.54 190.921 363.64 208.421 366.14 215.921C367.306 217.588 369.14 222.121 367.14 226.921C365.14 231.721 360.306 232.588 358.14 232.421C358.64 234.921 332.64 217.421 328.64 214.921C325.439 212.921 322.306 221.421 321.14 225.921Z"
        fill="white" stroke="white" />
</svg>