<?xml version="1.0" encoding="UTF-8" standalone="no"?>
<svg
   class="bi bi-grid-1x2"
   fill="currentColor"
   height="50"
   viewBox="0 0 50 50"
   width="50"
   version="1.1"
   id="svg1"
   xmlns="http://www.w3.org/2000/svg"
   xmlns:svg="http://www.w3.org/2000/svg">
  <defs
     id="defs1" />
  <path
     d="M 17.7505,2.125 H 2.1255 v 45.7505 h 15.625 z m 30.124,5e-4 h -15.625 v 15.625 h 15.625 z m 0,30.124 v 15.625 H 32.2495 V 32.2495 Z M 5e-4,2.125 C 5e-4,0.3991102 0.3996102,0 2.1255,0 h 15.625 c 1.72589,0 2.125,0.3991102 2.125,2.125 v 45.7505 c 0,1.72589 -0.39911,2.125 -2.125,2.125 H 2.1255 c -1.7258898,0 -2.125,-0.39911 -2.125,-2.125 z m 30.124,5e-4 c 0,-1.7258898 0.39911,-2.125 2.125,-2.125 h 15.625 c 1.72589,0 2.125,0.3991102 2.125,2.125 v 15.625 c 0,1.72589 -0.39911,2.125 -2.125,2.125 h -15.625 c -1.72589,0 -2.125,-0.39911 -2.125,-2.125 z m 2.125,27.999 c -1.72589,0 -2.125,0.39911 -2.125,2.125 v 15.625 c 0,1.72589 0.39911,2.125 2.125,2.125 h 15.625 c 1.72589,0 2.125,-0.39911 2.125,-2.125 v -15.625 c 0,-1.72589 -0.39911,-2.125 -2.125,-2.125 z"
     id="path1"
     style="stroke-width:3.125" />
</svg>
